<svg width="200" height="200" xmlns="http://www.w3.org/2000/svg">

 <g>
  <title>background</title>
  <rect fill="none" id="canvas_background" height="202" width="202" y="-1" x="-1"/>
 </g>
 <g>
  <title>Layer 1</title>
  <path fill="white" stroke="null" id="svg_1" d="m200.965917,36.522322l0,126.495074q0,15.680119 -11.134202,26.81432t-26.81432,11.134202l-29.515517,0q-2.108251,0 -3.22826,-0.131766t-2.569431,-0.658829t-2.108251,-1.910603t-0.658829,-3.623557l0,-31.492003q0,-12.781273 -6.851817,-18.71073q7.510645,-0.790594 13.505985,-2.371783t12.385976,-5.138862t10.673022,-8.762419t6.983582,-13.835399t2.701197,-19.830738q0,-15.94365 -10.40949,-27.143735q4.875331,-11.990679 -1.054126,-26.880203q-3.68944,-1.185891 -10.673022,1.449423t-12.122445,5.797691l-5.007097,3.162377q-12.25421,-3.425908 -25.299015,-3.425908t-25.299015,3.425908q-2.108251,-1.449423 -5.600042,-3.557674t-11.002436,-5.07298t-11.33185,-1.778837q-5.797691,14.889524 -0.92236,26.880203q-10.40949,11.200085 -10.40949,27.143735q0,11.200085 2.701197,19.764855t6.917699,13.835399t10.607139,8.828302t12.385976,5.138862t13.505985,2.371783q-5.270628,4.743565 -6.456519,13.571867q-2.76708,1.317657 -5.929457,1.976486t-7.510645,0.658829t-8.630654,-2.832963t-7.312996,-8.235356q-2.503548,-4.216502 -6.390637,-6.851817t-6.522402,-3.162377l-2.635314,-0.395297q-2.76708,0 -3.821205,0.592946t-0.658829,1.515306t1.185891,1.84472t1.712954,1.581188l0.92236,0.658829q2.898845,1.317657 5.731808,5.007097t4.15062,6.720051l1.317657,3.030611q1.712954,5.007097 5.797691,8.103591t8.828302,3.952971t9.157716,0.92236t7.312996,-0.46118l3.030611,-0.527063q0,5.007097 0.065883,13.571867t0.065883,8.960068q0,2.898845 -1.449423,4.414151t-2.898845,1.712954t-4.348268,0.197649l-29.515517,0q-15.680119,0 -26.81432,-11.134202t-11.134202,-26.81432l0,-126.495074q0,-15.680119 11.134202,-26.81432t26.81432,-11.134202l126.495074,0q15.680119,0 26.81432,11.134202t11.134202,26.81432z"/>
 </g>
</svg>